<svg xmlns="http://www.w3.org/2000/svg" width="15" height="15.004" viewBox="0 0 15 15.004"><defs><style>.a{fill:#2c3e4c;fill-rule:evenodd;}</style></defs><g transform="translate(0 0.003)"><g transform="translate(-103 -7321)"><g transform="translate(56 160)"><path class="a" d="M61.73,7174c-.463,1.4-2.277,2.1-3.573,1.99A11.343,11.343,0,0,1,53,7173.85a17.01,17.01,0,0,1-5.335-6.36,5.346,5.346,0,0,1,.218-5.54,2.139,2.139,0,0,1,1.69-.95c1.028-.05,1.172.54,1.525,1.46.263.68.614,1.38.81,2.09.367,1.33-.916,1.38-1.078,2.46-.1.69.727,1.6,1.1,2.09a10.065,10.065,0,0,0,2.608,2.4c.569.36,1.488,1.01,2.14.65,1-.55.909-2.24,2.313-1.67.727.3,1.431.73,2.125,1.1,1.073.58,1.023,1.17.614,2.42-.306.92.306-.93,0,0"/></g></g></g></svg>