<svg xmlns="http://www.w3.org/2000/svg" width="32" height="30.403" viewBox="0 0 32 30.403"><defs><style>.a{fill:#00bfd0;fill-rule:evenodd;}</style></defs><g transform="translate(0 0.002)"><g transform="translate(0 -0.002)"><path class="a" d="M107.163,2987.137h-14.3a1.622,1.622,0,0,1-1.578-1.376l-1.91-11.712H110.91l-2.174,11.744a1.611,1.611,0,0,1-1.573,1.344Zm4.037-16.368-5.643-9.952a1.579,1.579,0,0,0-2.171-.592h0a1.638,1.638,0,0,0-.59,2.224l4.709,8.32H92.494l4.717-8.3a1.67,1.67,0,0,0-.576-2.24h-.014a1.568,1.568,0,0,0-2.186.592l-5.635,9.952H85.6a1.641,1.641,0,0,0,0,3.28h.533l2.221,13.616a3.218,3.218,0,0,0,3.157,2.736h16.978a3.217,3.217,0,0,0,3.157-2.736l2.221-13.616h.534a1.641,1.641,0,0,0,0-3.28Z" transform="translate(-84 -2959.999)"/></g></g></svg>