<svg xmlns="http://www.w3.org/2000/svg" width="26.287" height="26.288" viewBox="0 0 26.287 26.288"><defs><style>.a{fill:#fff;fill-rule:evenodd;}</style></defs><g transform="translate(0)"><g transform="translate(0)"><g transform="translate(0)"><path class="a" d="M97.143,7169.516v2.628h2.629a2.632,2.632,0,0,0-2.629-2.628m0-5.258v2.629a5.259,5.259,0,0,1,5.257,5.257h2.629a7.889,7.889,0,0,0-7.886-7.886m0-5.257v2.628a10.528,10.528,0,0,1,10.515,10.515h2.629A13.145,13.145,0,0,0,97.143,7159m6.114,23.96c-.014.053-.016.053,0,0m-.7-3.483a29.194,29.194,0,0,0-2.793-1.445c-1.847-.749-1.722,1.472-3.04,2.194-.857.474-2.066-.381-2.814-.854a13.212,13.212,0,0,1-3.426-3.154c-.493-.645-1.581-1.84-1.447-2.748.213-1.419,1.9-1.484,1.416-3.232-.258-.934-.719-1.854-1.065-2.747-.463-1.209-.653-1.984-2-1.919a2.809,2.809,0,0,0-2.221,1.249c-1.622,2.116-1.377,4.968-.288,7.281a22.371,22.371,0,0,0,7.012,8.359,14.92,14.92,0,0,0,6.779,2.813c1.7.145,4.086-.776,4.7-2.616-.042.118-.083.25-.1.3.014-.039.046-.132.1-.3.062-.2.092-.289.106-.328-.018.053-.06.185-.105.315.536-1.63.6-2.419-.807-3.168m.912,2.853h0" transform="translate(-84 -7159.001)"/></g></g></g></svg>